<svg xmlns="http://www.w3.org/2000/svg" width="256" height="256" viewBox="0 0 100 100"><rect width="100" height="100" rx="20" fill="#de662d"></rect><path d="M20.34 74.49L20.94 69.61Q24.39 69.31 25.89 68.71Q27.39 68.11 27.91 66.61Q28.44 65.11 28.44 61.66L28.44 61.66L28.44 31.59Q24.09 31.74 22.33 32.34Q20.56 32.94 19.89 34.77Q19.21 36.61 18.69 41.41L18.69 41.41L12.54 41.86Q13.06 35.64 13.44 25.89L13.44 25.89L14.26 25.06L21.69 25.89L45.09 25.89L52.66 25.06L53.49 25.89Q53.64 34.89 54.24 41.41L54.24 41.41L48.09 41.86Q47.49 36.76 46.85 34.89Q46.21 33.01 44.60 32.37Q42.99 31.74 38.86 31.59L38.86 31.59Q38.49 37.14 38.23 46.66Q37.96 56.19 37.96 63.99L37.96 63.99Q37.96 66.76 38.94 67.96Q39.91 69.16 42.09 69.16L42.09 69.16Q43.96 69.16 46.06 68.94L46.06 68.94L46.36 69.31L45.69 74.34Q37.74 74.04 32.79 74.04L32.79 74.04Q28.89 74.04 20.34 74.49L20.34 74.49ZM69.46 74.94Q64.74 74.94 61.14 72.80Q57.54 70.66 55.59 66.76Q53.64 62.86 53.64 57.76L53.64 57.76Q53.64 52.14 55.92 47.79Q58.21 43.44 62.30 41.00Q66.39 38.56 71.71 38.56L71.71 38.56Q78.99 38.56 83.22 43.17Q87.46 47.79 87.46 55.66L87.46 55.66Q87.46 61.29 85.21 65.67Q82.96 70.06 78.88 72.50Q74.79 74.94 69.46 74.94L69.46 74.94ZM70.96 69.31Q74.19 69.31 75.88 66.72Q77.56 64.14 77.56 59.11L77.56 59.11Q77.56 52.06 75.61 48.46Q73.66 44.86 69.99 44.86L69.99 44.86Q66.76 44.86 65.08 47.45Q63.39 50.04 63.39 55.06L63.39 55.06Q63.39 62.11 65.34 65.71Q67.29 69.31 70.96 69.31L70.96 69.31Z" fill="#fff"></path></svg>